<?xml version="1.0" encoding="utf-8"?>
<!-- Generator: Adobe Illustrator 23.0.2, SVG Export Plug-In . SVG Version: 6.00 Build 0)  -->
<svg version="1.1" id="Layer_1" xmlns="http://www.w3.org/2000/svg" xmlns:xlink="http://www.w3.org/1999/xlink" x="0px" y="0px"
	 viewBox="0 0 500 500" style="enable-background:new 0 0 500 500;" xml:space="preserve">
<metadata><?xpacket begin="﻿" id="W5M0MpCehiHzreSzNTczkc9d"?>
<!-- <x:xmpmeta xmlns:x="adobe:ns:meta/" x:xmptk="Adobe XMP Core 6.0-c002 79.164352, 2020/01/30-15:50:38        ">
   <rdf:RDF xmlns:rdf="http://www.w3.org/1999/02/22-rdf-syntax-ns#">
      <rdf:Description rdf:about=""
            xmlns:xmpRights="http://ns.adobe.com/xap/1.0/rights/"
            xmlns:dc="http://purl.org/dc/elements/1.1/"
            xmlns:Iptc4xmpCore="http://iptc.org/std/Iptc4xmpCore/1.0/xmlns/"
            xmlns:xmp="http://ns.adobe.com/xap/1.0/"
            xmlns:xmpMM="http://ns.adobe.com/xap/1.0/mm/"
            xmlns:stEvt="http://ns.adobe.com/xap/1.0/sType/ResourceEvent#">
         <xmpRights:Marked>True</xmpRights:Marked>
         <xmpRights:WebStatement>crafthousesvg.com</xmpRights:WebStatement>
         <dc:rights>
            <rdf:Alt>
               <rdf:li xml:lang="x-default">Copyright © 2020 Craft House SVG. All rights reserved.</rdf:li>
            </rdf:Alt>
         </dc:rights>
         <dc:creator>
            <rdf:Seq>
               <rdf:li>Craft House SVG</rdf:li>
            </rdf:Seq>
         </dc:creator>
         <Iptc4xmpCore:CreatorContactInfo>
            <rdf:Description>
               <Iptc4xmpCore:CiUrlWork>crafthousesvg.com</Iptc4xmpCore:CiUrlWork>
            </rdf:Description>
         </Iptc4xmpCore:CreatorContactInfo>
         <xmp:MetadataDate>2020-10-10T16:30:43-07:00</xmp:MetadataDate>
         <xmpMM:InstanceID>xmp.iid:a64cd162-e08c-42a2-a66b-fa654d94a4f9</xmpMM:InstanceID>
         <xmpMM:DocumentID>xmp.did:a64cd162-e08c-42a2-a66b-fa654d94a4f9</xmpMM:DocumentID>
         <xmpMM:OriginalDocumentID>xmp.did:a64cd162-e08c-42a2-a66b-fa654d94a4f9</xmpMM:OriginalDocumentID>
         <xmpMM:History>
            <rdf:Seq>
               <rdf:li>
                  <rdf:Description>
                     <stEvt:action>saved</stEvt:action>
                     <stEvt:instanceID>xmp.iid:a64cd162-e08c-42a2-a66b-fa654d94a4f9</stEvt:instanceID>
                     <stEvt:when>2020-10-10T16:30:43-07:00</stEvt:when>
                     <stEvt:softwareAgent>Adobe Bridge 2020 (Macintosh)</stEvt:softwareAgent>
                     <stEvt:changed>/metadata</stEvt:changed>
                  </rdf:Description>
               </rdf:li>
            </rdf:Seq>
         </xmpMM:History>
      </rdf:Description>
   </rdf:RDF>
</x:xmpmeta> -->
                                                                                                    
                                                                                                    
                                                                                                    
                                                                                                    
                                                                                                    
                                                                                                    
                                                                                                    
                                                                                                    
                                                                                                    
                                                                                                    
                                                                                                    
                                                                                                    
                                                                                                    
                                                                                                    
<!-- <svg
    version="1.1"
    id="Layer_1"
    xmlns="http://www.w3.org/2000/svg"
    xmlnsXlink="http://www.w3.org/1999/xlink"
    x="0px"
    y="0px"
    viewBox="0 0 500 500"
    style={{ enableBackground: 'new 0 0 500 500' }}
    xmlSpace="preserve"
  >
    {/* Insert SVG paths and shapes here */}
    <style type="text/css">
	.st0{fill:#231F20;}
	.st1{fill:#F6921E;}
	.st2{fill:#8BC53F;}
	.st3{fill:#E6E6E6;}
	.st4{fill:#009245;}
	.st5{fill:#FBB03B;}
	.st6{fill:#FCEE21;}
</style>
<g>
	<path class="st3" d="M343.72,113.65c10.05,9.72,41.96-30.44,105.48-25.16c11.53,0.96,3.55,15.66-3.01,24.32
		c-21.09,27.84-43.47,28.31-43.3,42.6c0.23,19.89-3.54,21.96-24.52,32.64c-19.08,9.71,9.23,41.94-23.92,70.69
		c-4.85,4.2-5.45,1.94-9.27,7.22c-15.96,22.08,2.32,35.49-19.28,60.05c-19.18,21.81-13.91,15.83-18.72,21.85
		c-7.52,9.4,9.28,37.32-24.44,104.87c-2.9,5.81-24.3,38.14-33.43,41.79c-4.66,1.86-9.61-1.81-7.34-7.57
		c5.8-14.69,9.69-21.95,9.93-36.11c0.74-42.99-12.85-55.47-36.4-81.58c-12.93-14.33-10.86-25.6-13.41-37.55
		c-5.71-26.73-36.6-33.06-29.34-67.57c0.42-1.98,3.14-6.22-2.92-11.65c-12.26-10.98-28.87-18.9-27.91-34.41
		c1.1-17.74-0.34-18.23-36.97-36.68c-42.53-21.42-16.33-36.98-35.51-57.69C55.68,108.85,44.14,103.26,45,89.36
		c0.47-7.53,2.67-9.96,10.06-11.63c26.82-6.07,53.89,35.99,100.72,39.87c18.42,1.53,12.89-5.12,19.38-26.49
		c6.32-20.81,8.32-41.1,26.69-61.86c22.12-24.99,54.69-31.64,85.21-15.35C323.46,33.32,345.65,82.74,343.72,113.65z"/>
	<path d="M258.94,176.87c-24.72,0.3-17.79-34.26-23.47-36.84c-18.82-8.56-26.98-27.39-24.93-39.59c0.62-3.67,2.26-3.12,9.5-1.06
		c23.6,6.72,52.55,7.92,75.46,0c13.76-4.76,13.48-9.15,16.75-7.11c3.55,2.21-1.09,14.36-2.18,16.88
		c-11.46,26.53-28.07,25.05-28.84,32.77C279.19,162.34,279.79,176.62,258.94,176.87z M273.42,125.49
		c-12.34,1.2-10.58-0.1-10.45,5.53c0.12,4.86,0.03,16.17-1.6,20.74c-2.78-8.14-2.82-16.57-3.84-24.65c-4.17,0-8.01,0-11.91,0
		c-0.21,29.1,1.68,35.98,10.07,40.61C272.15,176.83,276.71,142.6,273.42,125.49z"/>
	<path d="M297.89,58.64c12,14.38-4.46,35.48-20.12,26.64C256.6,73.35,281.33,38.81,297.89,58.64z"/>
	<path d="M251.25,70.43c1.46,3.09-1.74,6.13-4.67,4.42c-2.07-1.22-4.67-4.95-10.6-6.18c-8.26-1.71-11.92,4.14-14.15,6.34
		c-2,1.97-4.45-0.08-3.78-2.26C222.76,57.49,246.02,59.37,251.25,70.43z"/>
</g>
    {/* Remember to convert the attributes and namespaces as explained earlier */}
  </svg>                                                                                        
                                                                                                     -->
                                                                                                    
                                                                                                    
                                                                                                    
                                                                                                    
                           
<?xpacket end="w"?></metadata>
<style type="text/css">
	.st0{fill:#231F20;}
	.st1{fill:#F6921E;}
	.st2{fill:#8BC53F;}
	.st3{fill:#E6E6E6;}
	.st4{fill:#009245;}
	.st5{fill:#FBB03B;}
	.st6{fill:#FCEE21;}
</style>
<g>
	<path class="st3" d="M343.72,113.65c10.05,9.72,41.96-30.44,105.48-25.16c11.53,0.96,3.55,15.66-3.01,24.32
		c-21.09,27.84-43.47,28.31-43.3,42.6c0.23,19.89-3.54,21.96-24.52,32.64c-19.08,9.71,9.23,41.94-23.92,70.69
		c-4.85,4.2-5.45,1.94-9.27,7.22c-15.96,22.08,2.32,35.49-19.28,60.05c-19.18,21.81-13.91,15.83-18.72,21.85
		c-7.52,9.4,9.28,37.32-24.44,104.87c-2.9,5.81-24.3,38.14-33.43,41.79c-4.66,1.86-9.61-1.81-7.34-7.57
		c5.8-14.69,9.69-21.95,9.93-36.11c0.74-42.99-12.85-55.47-36.4-81.58c-12.93-14.33-10.86-25.6-13.41-37.55
		c-5.71-26.73-36.6-33.06-29.34-67.57c0.42-1.98,3.14-6.22-2.92-11.65c-12.26-10.98-28.87-18.9-27.91-34.41
		c1.1-17.74-0.34-18.23-36.97-36.68c-42.53-21.42-16.33-36.98-35.51-57.69C55.68,108.85,44.14,103.26,45,89.36
		c0.47-7.53,2.67-9.96,10.06-11.63c26.82-6.07,53.89,35.99,100.72,39.87c18.42,1.53,12.89-5.12,19.38-26.49
		c6.32-20.81,8.32-41.1,26.69-61.86c22.12-24.99,54.69-31.64,85.21-15.35C323.46,33.32,345.65,82.74,343.72,113.65z"/>
	<path d="M258.94,176.87c-24.72,0.3-17.79-34.26-23.47-36.84c-18.82-8.56-26.98-27.39-24.93-39.59c0.62-3.67,2.26-3.12,9.5-1.06
		c23.6,6.72,52.55,7.92,75.46,0c13.76-4.76,13.48-9.15,16.75-7.11c3.55,2.21-1.09,14.36-2.18,16.88
		c-11.46,26.53-28.07,25.05-28.84,32.77C279.19,162.34,279.79,176.62,258.94,176.87z M273.42,125.49
		c-12.34,1.2-10.58-0.1-10.45,5.53c0.12,4.86,0.03,16.17-1.6,20.74c-2.78-8.14-2.82-16.57-3.84-24.65c-4.17,0-8.01,0-11.91,0
		c-0.21,29.1,1.68,35.98,10.07,40.61C272.15,176.83,276.71,142.6,273.42,125.49z"/>
	<path d="M297.89,58.64c12,14.38-4.46,35.48-20.12,26.64C256.6,73.35,281.33,38.81,297.89,58.64z"/>
	<path d="M251.25,70.43c1.46,3.09-1.74,6.13-4.67,4.42c-2.07-1.22-4.67-4.95-10.6-6.18c-8.26-1.71-11.92,4.14-14.15,6.34
		c-2,1.97-4.45-0.08-3.78-2.26C222.76,57.49,246.02,59.37,251.25,70.43z"/>
</g>
</svg>
